<svg xmlns="http://www.w3.org/2000/svg" viewBox="0 0 12425.88 12425.88"><defs><style>.cls-1{fill:#fff;}.cls-2{fill:#fff;}</style></defs><g id="katman_3" data-name="katman 3"><!-- <path class="cls-2" d="M622.11,571.54h2280c51,0,69.52,66.56,26.25,93.59a787.19,787.19,0,0,0-186.23,162.06A49.72,49.72,0,0,1,2704,844.91H895.48a50.57,50.57,0,0,0-50.57,50.57V2704.84a50.33,50.33,0,0,1-18.35,38.91,787.38,787.38,0,0,0-161.84,181.73c-27.39,42.52-93.18,23.41-93.18-27.16V622.11A50.57,50.57,0,0,1,622.11,571.54Z"/> --><!-- <path class="cls-2" d="M2882.59,11854.34H622.11a50.57,50.57,0,0,1-50.57-50.57V9540c0-50.58,65.79-69.68,93.18-27.17a787,787,0,0,0,161.84,181.73,50.37,50.37,0,0,1,18.35,38.92V11530.4a50.57,50.57,0,0,0,50.57,50.57H2693.54a50.42,50.42,0,0,1,39.26,18.77,787.66,787.66,0,0,0,177.76,162C2952.29,11789.36,2932.66,11854.34,2882.59,11854.34Z"/> --><!-- <path class="cls-2" d="M11854.34,9540v2263.78a50.57,50.57,0,0,1-50.57,50.57H9543.29c-50.07,0-69.7-65-28-92.64a787.66,787.66,0,0,0,177.76-162,50.42,50.42,0,0,1,39.26-18.77H11530.4a50.57,50.57,0,0,0,50.57-50.57V9733.47a50.37,50.37,0,0,1,18.35-38.92,787,787,0,0,0,161.84-181.73C11788.55,9470.31,11854.34,9489.41,11854.34,9540Z"/> --><!-- <path class="cls-2" d="M11854.34,622.11V2898.32c0,50.57-65.79,69.68-93.18,27.16a787.38,787.38,0,0,0-161.84-181.73,50.33,50.33,0,0,1-18.35-38.91V895.48a50.57,50.57,0,0,0-50.57-50.57H9721.85a49.72,49.72,0,0,1-38.14-17.72,787.19,787.19,0,0,0-186.23-162.06c-43.27-27-24.78-93.59,26.25-93.59h2280A50.57,50.57,0,0,1,11854.34,622.11Z"/> --><path class="cls-2" d="M9299,9412.21h198.25v387.35h230.27V9458h198.25v341.6h248.58V9412.21h198.25v648.13H9299Z"/><path class="cls-2" d="M9302,8811.37q0-256.2,148.68-420.9t385.83-164.7q237.15,0,386.59,164.7t149.45,420.9v376.68H9302Zm872.3,115.9v-115.9q0-149.43-91.5-234.85t-245.53-85.4q-154,0-245.52,85.4t-91.5,234.85v115.9Z"/><path class="cls-2" d="M9299,7413h198.25V7800.3h230.27V7458.7h198.25v341.6h248.58V7413h198.25v648.12H9299Z"/><path class="cls-2" d="M9302,7188.78V6723.66q0-163.17,79.3-260t201.3-96.84q181.5,0,245.52,212,15.27-108.27,90-172.33t175.37-64.05q128.1,0,203.59,93.79t75.49,261.54v491.05ZM9500.29,6928h231.8v-170.8q0-56.41-29-90.74T9617,6632.15q-57.18,0-86.92,34.32t-29.74,90.74Zm674,0V6731.28q0-53.37-32-88.45t-88.45-35.08q-56.4,0-90,33.55t-33.55,86.93V6928Z"/><path class="cls-2" d="M9172.41,5951.25q32,32.81,32,80.06t-32,79.3q-32,32-79.3,32t-80.06-32q-32.77-32-32.79-80.06t32.79-80.07q32.81-32,80.06-32T9172.41,5951.25Zm1200.18,209.68H9302V5900.16h1070.55Z"/><path class="cls-2" d="M10372.59,5131.56v260.77h-344.65L9302,5762.91V5467.06l483.42-205.88L9302,5056.83V4761l725.9,370.58Z"/><path class="cls-2" d="M10372.59,3943.58l-180,59.48v384.3l180,59.48v277.55L9299,4352.29V4035.08l1073.6-370.57Zm-378.2,378.21V4068.63l-381.25,126.58Z"/><path class="cls-2" d="M9500.29,3609.61H9302V2764.76h198.25v292.8h872.3v260.78h-872.3Z"/><path class="cls-2" d="M10372.59,2609.23H9302V2348.45h1070.55Z"/><path class="cls-2" d="M3396.18,5818.88q0-101-92.89-101H2947.91V5245.43Q2536,5201,2297.72,4974.85t-238.27-605.77h735q28.2,339.24,347.31,339.23,149.35,0,234.22-78.75t84.81-199.9q0-121.15-76.73-197.88t-199.9-121.16q-123.24-44.38-274.62-82.79a2758.89,2758.89,0,0,1-300.86-94.9q-149.46-56.5-272.6-135.29t-199.9-226.15q-76.75-147.37-76.73-349.33,0-395.73,294.81-634t753.17-238.26q458.3,0,741.05,208t294.81,656.24H3392.14q-16.18-153.42-98.94-236.24t-212-82.79q-129.3,0-212,68.65t-82.79,197.89q0,129.28,76.73,208T3063,3490.72q123.15,42.41,274.62,80.77a3109.29,3109.29,0,0,1,300.86,92.88q149.37,54.52,272.6,135.29T4111,4027.83q76.67,147.48,76.73,353.37,0,315-226.15,553.27t-597.69,302.88v137.31q222,0,373.56,109t151.44,337.21q0,228.1-155.48,353.36t-369.52,125.19H2705.6V5923.89h448.27q157.5,0,167.6-4a194.6,194.6,0,0,1,26.25-8.08c10.72-2.71,18.17-6.75,22.21-12.12s8.7-12.11,14.13-20.19Q3396.18,5867.36,3396.18,5818.88Z"/><path class="cls-2" d="M6449.19,2382.16v525H5423.43V3517H6328v525H5423.43v658.27H6449.19v525H4732.85V2382.16Z"/><path class="cls-2" d="M6901.1,4030.64V3577H8306.72v453.64Z"/><path class="cls-2" d="M3842.89,7236.38h690.58v2835H3842.89V8896.18H2748.47v1175.19H2057.9v-2835h690.57v1134.8H3842.89Z"/><path class="cls-2" d="M5139.17,10071.37v-2835h690.58v2835Zm555.29-3178.26q-86.88,84.81-212,84.81t-210-84.81q-84.79-84.81-84.81-210t84.81-212q84.81-86.79,212-86.83t212,86.83q84.81,86.9,84.81,212T5694.46,6893.11Z"/><path class="cls-2" d="M7126.09,8968.87v1102.5H6435.51v-2835H7554.16q492.66,0,767.3,254.42t274.63,613.85q0,246.38-149.43,480.57T7958,8916.37l694.62,1155H7844.93l-638.07-1102.5Zm0-1207.49v682.49h428.07q157.5,0,248.37-92.88t90.87-244.32q0-151.44-92.89-248.37t-246.35-96.92Z"/></g></svg>